<?xml version="1.0" standalone="no"?>
<!DOCTYPE svg PUBLIC "-//W3C//DTD SVG 20010904//EN"
 "http://www.w3.org/TR/2001/REC-SVG-20010904/DTD/svg10.dtd">
<svg version="1.0" xmlns="http://www.w3.org/2000/svg"
 width="512.000000pt" height="512.000000pt" viewBox="0 0 512.000000 512.000000"
 preserveAspectRatio="xMidYMid meet">
<metadata>
Created by potrace 1.14, written by Peter Selinger 2001-2017
</metadata>
<g transform="translate(0.000000,512.000000) scale(0.100000,-0.100000)"
fill="#000000" stroke="none">
<path d="M1964 4892 c-52 -15 -114 -72 -140 -129 -10 -21 -46 -90 -79 -153
-34 -63 -97 -182 -140 -265 -43 -82 -95 -181 -115 -220 -33 -62 -107 -204
-233 -445 -50 -96 -118 -227 -189 -360 -30 -58 -92 -175 -136 -260 -45 -85
-104 -198 -131 -250 -127 -238 -154 -299 -156 -347 -4 -87 41 -165 117 -201
42 -20 59 -21 672 -21 346 -1 631 -3 633 -4 1 -2 -11 -55 -28 -118 -17 -63
-32 -121 -34 -129 -1 -8 -8 -35 -15 -60 -7 -25 -14 -52 -16 -60 -1 -8 -35
-136 -75 -285 -39 -148 -93 -353 -120 -455 -26 -102 -58 -221 -70 -265 -11
-44 -22 -87 -24 -95 -2 -8 -20 -76 -41 -150 -45 -164 -49 -236 -14 -298 70
-124 240 -145 339 -43 25 26 200 216 252 272 80 88 223 243 276 299 34 36 71
77 83 90 12 14 45 50 73 80 29 31 81 87 117 126 36 39 111 120 166 180 56 60
114 123 129 139 15 17 70 77 123 134 54 57 102 109 107 115 6 6 62 67 125 136
63 69 120 130 125 136 6 6 55 59 110 119 138 149 138 149 245 265 52 57 109
118 125 135 69 74 221 239 235 255 8 10 61 66 116 126 202 216 208 226 208
314 1 90 -64 177 -153 205 -14 4 -291 7 -618 7 -326 0 -593 2 -593 5 0 2 205
265 455 583 251 318 462 595 471 616 30 71 6 174 -53 229 -69 63 1 59 -1091
60 -788 0 -1003 -3 -1038 -13z"/>
</g>
</svg>
